<?xml version="1.0" encoding="UTF-8"?>
<svg version="1.1" xmlns="http://www.w3.org/2000/svg" width="460" height="460">
<path d="M0 0 C0.77085937 0.60972656 1.54171875 1.21945313 2.3359375 1.84765625 C2.94179688 2.32332031 3.54765625 2.79898438 4.171875 3.2890625 C9.20309547 7.36256333 13.49170356 12.01459536 17.7734375 16.84765625 C21.11329802 20.57394691 24.35827671 23.82117521 28.3359375 26.84765625 C29.3465625 27.69328125 30.3571875 28.53890625 31.3984375 29.41015625 C39.69445172 35.18447451 50.43435981 37.13239569 60.3359375 35.84765625 C67.14765849 34.26136506 73.08221836 31.81439624 78.8125 27.80078125 C80.3359375 26.84765625 80.3359375 26.84765625 82.3359375 26.84765625 C82.3359375 26.18765625 82.3359375 25.52765625 82.3359375 24.84765625 C83.0371875 24.31140625 83.7384375 23.77515625 84.4609375 23.22265625 C87.63731068 20.59869579 89.73514624 17.79928927 92.1015625 14.45703125 C92.50890625 13.9259375 92.91625 13.39484375 93.3359375 12.84765625 C93.6659375 12.84765625 93.9959375 12.84765625 94.3359375 12.84765625 C93.75793403 29.32075518 84.04367374 45.68938056 72.3359375 56.84765625 C69.13516165 59.41656373 65.81070514 61.66773127 62.3359375 63.84765625 C61.63984375 64.31042969 60.94375 64.77320313 60.2265625 65.25 C42.83022359 76.00826222 18.46567007 76.0273142 -0.984375 71.8203125 C-19.72009084 66.86787806 -35.47769807 55.79282305 -47.6640625 40.84765625 C-50.97638309 37.37810526 -54.45125137 34.25756647 -58.1640625 31.22265625 C-59.081875 30.46726563 -59.9996875 29.711875 -60.9453125 28.93359375 C-70.02689047 21.96583134 -80.30732245 19.5794632 -91.6640625 20.84765625 C-100.54120169 22.68968865 -108.89211372 25.87975788 -115.28125 32.53125 C-116.6640625 33.84765625 -116.6640625 33.84765625 -118.6640625 33.84765625 C-118.8909375 34.38390625 -119.1178125 34.92015625 -119.3515625 35.47265625 C-121.09788306 38.63266488 -123.3043474 41.11535455 -125.6640625 43.84765625 C-127.96012099 36.95948079 -122.90577285 27.99295329 -119.9140625 21.72265625 C-113.30987239 9.1297799 -104.85128066 -0.84001286 -92.6640625 -8.15234375 C-91.973125 -8.59578125 -91.2821875 -9.03921875 -90.5703125 -9.49609375 C-63.02438297 -25.40289813 -24.08001773 -18.32482288 0 0 Z " fill="#36B8F2" transform="translate(282.6640625,159.15234375)"/>
<path d="M0 0 C1.41732422 0.46792969 1.41732422 0.46792969 2.86328125 0.9453125 C18.64172179 6.64374778 30.75169927 19.4492102 42.05664062 31.31054688 C52.1451866 41.65411929 61.45630862 47.82078178 76 49 C89.55470206 48.90425538 100.52302411 43.57806363 110 34 C112.28717778 31.49783945 114.47397201 29.05205598 116 26 C116.66 26 117.32 26 118 26 C114.69608747 42.89561772 107.70597595 58.0563826 95 70 C94.34 70 93.68 70 93 70 C93 70.66 93 71.32 93 72 C75.99530539 87.29961683 51.29227069 86.96618731 30 86 C15.18604349 84.82165143 0.85767485 77.93440318 -10 68 C-10.84046875 67.26523437 -11.6809375 66.53046875 -12.546875 65.7734375 C-23.94824569 55.71950153 -23.94824569 55.71950153 -28 51 C-28 50.34 -28 49.68 -28 49 C-28.85078125 48.62294922 -28.85078125 48.62294922 -29.71875 48.23828125 C-32.31221828 46.83052535 -34.27636661 45.12576711 -36.5 43.1875 C-45.37851619 36.0063472 -55.2270875 32.37799143 -66.64453125 33.1875 C-80.29805265 35.06266174 -89.59524903 42.62357659 -99 52 C-99.7734375 52.77085937 -100.546875 53.54171875 -101.34375 54.3359375 C-102.16359375 55.15964844 -102.16359375 55.15964844 -103 56 C-102.47383036 50.12663137 -101.2783092 45.24092361 -99 39.8125 C-98.69312256 39.07781494 -98.38624512 38.34312988 -98.07006836 37.58618164 C-91.1210658 21.63376405 -79.43150322 7.70452816 -62.9296875 1.18164062 C-42.96281836 -5.87937037 -20.14892364 -7.11715938 0 0 Z " fill="#36B9F2" transform="translate(186,236)"/>
</svg>
